<?xml version="1.0" encoding="UTF-8" standalone="no"?>
<!DOCTYPE svg PUBLIC "-//W3C//DTD SVG 1.1//EN" "http://www.w3.org/Graphics/SVG/1.1/DTD/svg11.dtd">
<svg width="100%" height="100%" viewBox="0 0 200 201" version="1.1" xmlns="http://www.w3.org/2000/svg" xmlns:xlink="http://www.w3.org/1999/xlink" xml:space="preserve" xmlns:serif="http://www.serif.com/" style="fill-rule:evenodd;clip-rule:evenodd;stroke-linejoin:round;stroke-miterlimit:2;">
    <g transform="matrix(1,0,0,1,0,-218)">
        <g id="prowl-cutout" serif:id="prowl cutout" transform="matrix(0.263199,0,0,0.273056,22.5783,204.31)">
            <rect x="-85.784" y="51.941" width="759.882" height="732.451" style="fill:none;"/>
            <g transform="matrix(3.4152,0,0,2.78414,-48.111,174.094)">
                <rect x="89.094" y="65.754" width="22.25" height="74.527" style="fill:white;"/>
            </g>
            <g transform="matrix(1,0,0,1,0.510605,0.643615)">
                <g transform="matrix(3.79941,0,0,3.66225,-88.6213,51.9412)">
                    <path d="M166.123,89.81C164,87.325 161.214,84.969 158,82.695L158,58.346C149.225,62.664 140.598,70.36 132,78.734C148.973,90.444 160.972,100.433 166.125,108.052L156.324,108.098L166.267,117.834L166.307,125.566L149.611,121.657L161.601,129.694L120.117,148.316L120.02,156.4L117.986,158.571L105.612,158.586L103.166,156.777L103.13,152.366L110,145.807L110,104.386L125.089,90.993L119.753,85.381L110,95.311L110,83.341C128.005,62.716 146.746,47.035 165.842,35.01L166.123,89.81ZM147.584,101.285C123.996,100.903 114.087,115.62 114,124.18L114,136L118.925,129.04C137.973,129.061 147.004,119.299 147.584,101.285Z" style="fill:white;"/>
                </g>
                <g transform="matrix(-3.79941,0,0,3.66225,675.914,51.9412)">
                    <path d="M166.307,125.566L166.267,117.834L156.324,108.098L166.125,108.052C160.972,100.433 148.973,90.444 132,78.734C140.598,70.36 149.225,62.664 158,58.346L158,82.695C161.214,84.969 164,87.325 166.123,89.81L165.842,35.01C146.746,47.035 128.005,62.716 110,83.341L110,95.311L119.753,85.381L125.089,90.993L110,104.386L110,145.807L103.13,152.366L103.166,156.777L105.612,158.586L117.986,158.571L120.02,156.4L120.117,148.316L161.601,129.694L149.611,121.657L166.307,125.566ZM147.584,101.285C147.004,119.299 137.973,129.061 118.925,129.04L114,136L114,124.18C114.087,115.62 123.996,100.903 147.584,101.285Z" style="fill:white;"/>
                </g>
            </g>
        </g>
    </g>
</svg>
