<?xml version="1.0" encoding="UTF-8" standalone="no"?>
<!DOCTYPE svg PUBLIC "-//W3C//DTD SVG 1.1//EN" "http://www.w3.org/Graphics/SVG/1.1/DTD/svg11.dtd">
<svg width="100%" height="100%" viewBox="0 0 201 201" version="1.1" xmlns="http://www.w3.org/2000/svg" xmlns:xlink="http://www.w3.org/1999/xlink" xml:space="preserve" xmlns:serif="http://www.serif.com/" style="fill-rule:evenodd;clip-rule:evenodd;stroke-linejoin:round;stroke-miterlimit:2;">
    <g transform="matrix(1,0,0,1,-217,-218)">
        <g id="prowl-cutout-no-border" transform="matrix(0.263199,0,0,0.273056,239.88,204.31)">
            <rect x="-85.784" y="51.941" width="759.882" height="732.451" style="fill:none;"/>
            <clipPath id="_clip1">
                <rect x="-85.784" y="51.941" width="759.882" height="732.451"/>
            </clipPath>
            <g clip-path="url(#_clip1)">
                <g transform="matrix(5.19859,0,0,4.23801,-226.841,52.428)">
                    <path d="M89.775,140.281L89.775,148.151L97.419,156.779L97.378,162.581L94.657,164.961L80.891,164.941L78.628,162.085L78.52,151.451L32.369,126.955L45.708,116.383L27.134,121.526L27.178,111.355L38.24,98.548L27.336,98.487C33.069,88.466 46.418,75.327 65.3,59.923C55.735,48.908 46.138,38.785 36.375,33.104L36.375,65.134C32.799,68.124 29.7,71.224 27.338,74.492L27.651,2.408C48.836,18.181 69.627,38.737 89.606,65.754L110.832,65.754C130.811,38.737 151.602,18.181 172.787,2.408L173.1,74.492C170.738,71.224 167.639,68.124 164.063,65.134L164.063,33.104C154.301,38.785 144.703,48.908 135.138,59.923C154.02,75.327 167.369,88.466 173.102,98.487L162.198,98.548L173.26,111.355L173.304,121.526L154.73,116.383L168.069,126.955L121.918,151.451L121.81,162.085L119.547,164.941L105.781,164.961L103.06,162.581L103.019,156.779L110.663,148.151L110.663,140.281L89.775,140.281ZM89.094,80.908L78.925,68.666L72.989,76.049L89.094,92.951L89.094,80.908ZM111.344,80.908L111.344,92.951L127.45,76.049L121.513,68.666L111.344,80.908ZM47.963,89.587C48.608,113.283 58.655,126.123 79.847,126.095L85.325,135.251L85.325,119.703C85.228,108.442 74.205,89.084 47.963,89.587ZM152.475,89.587C126.233,89.084 115.21,108.442 115.113,119.703L115.113,135.251L120.591,126.095C141.783,126.123 151.83,113.283 152.475,89.587Z" style="fill:white;"/>
                </g>
            </g>
        </g>
    </g>
</svg>
